<svg enable-background="new 0 0 512 512"
     height="512"
     viewBox="0 0 512 512"
     width="512"
     xmlns="http://www.w3.org/2000/svg">
    <g>
        <g>
            <path fill="#fff" fill-rule="evenodd" clip-rule="evenodd" d="m182.145 306.714c-29.31 25.711-82.09 31.891-153.465 31.721-6.661 21.941-3.033 46.943 7.682 69.792 19.36 41.302 61.822 75.603 108.508 72.059l79.057-81.669c20.948-1.786 41.527-3.827 60.802-7.569v-43.939h85.094c15.704-19.021 26.333-45.554 29.82-83.03 2.579-27.922 8.39-55.136 22.762-76.878 12.812-19.39 31.691-36.767 59.073-34.187l-45.042-43.372c-42.519-40.962-119.195-31.239-154.826 24.379-10.119 15.79-16.922 35.264-18.708 58.311-40.138-19.276-72.622-10.489-113.469-4.28-36.169 5.499-78.943 9.014-139.433-10.744 14.286 22.224 28.969 41.869 44.39 58.764 36.765 40.225 77.781 64.661 127.755 70.642z" />
        </g>
        <g>
            <path fill="#fff" fill-rule="evenodd" clip-rule="evenodd" d="m97.05 96.801c11.764 35.973 28.658 66.418 52.383 91.251 40.846-6.208 73.331-14.996 113.469 4.28 1.786-23.047 8.589-42.521 18.708-58.311-61.227-71.379-112.051-10.8-202.73-124.02 3.827 31.834 9.667 60.777 18.17 86.8z" />
        </g>
        <g>
            <path fill="#fff" fill-rule="evenodd" clip-rule="evenodd" d="m284.729 347.109 86.086 76.425 22.535 20.013 22.563-20.013 86.087-76.425h-132.177z" /></g>
        <g>
            <path fill="#fff" fill-rule="evenodd" clip-rule="evenodd" d="m284.729 391.048v110.952l86.086-78.466-86.086-76.425z" />
        </g>
        <g>
            <path fill="#fff" fill-rule="evenodd" clip-rule="evenodd" d="m370.815 423.534-86.086 78.466h217.271l-86.087-78.466-22.563 20.013z" />
        </g>
        <g>
            <path fill="#fff" fill-rule="evenodd" clip-rule="evenodd" d="m502 347.109-86.087 76.425 86.087 78.466z" />
        </g>
        <g>
            <path fill="#2d3134" d="m393.35 492c-5.522 0-10 4.478-10 10s4.478 10 10 10h.057c5.522 0 9.972-4.478 9.972-10s-4.506-10-10.029-10z"/>
            <path fill="#2d3134" d="m377.165 147.777c5.522 0 10-4.491 10-10.014 0-5.522-4.478-10-10-10s-10 4.478-10 10v.028c0 5.523 4.477 9.986 10 9.986z"/>
            <path fill="#2d3134" d="m502 337.11h-113.149c11.219-19.403 18.058-43.176 20.749-72.11 2.952-31.955 9.672-54.925 21.146-72.286 14.415-21.812 30.708-31.53 49.792-29.743 4.246.396 8.255-1.922 10.027-5.785s.909-8.426-2.152-11.374l-45.041-43.371c-28.618-27.565-72.991-35.53-113.048-20.288-19.985 7.604-36.82 20.056-49.673 36.135-26.075-25.988-51.378-31.913-75.927-37.653-34.154-7.985-69.472-16.243-118.04-76.885-2.791-3.486-7.556-4.698-11.675-2.97-4.118 1.728-6.591 5.978-6.059 10.412 3.981 33.191 10.064 62.399 18.445 88.19.075.281.167.559.268.837 10.374 31.642 24.251 58.096 42.018 80.373-31.34 3.443-67.924 3.096-116.579-12.791-4.02-1.315-8.432.045-11.018 3.393-2.585 3.347-2.786 7.958-.501 11.517 35.996 56.054 71.762 92.07 112.557 113.346 13.24 6.905 26.999 12.164 41.338 15.829-25.421 11.579-64.025 16.552-124.132 16.552-.875 0-1.762-.001-2.645-.003-.008 0-.016 0-.024 0-4.404 0-8.291 2.881-9.569 7.097-9.94 32.766.243 73.524 26.576 106.372 24.709 30.821 58.924 48.625 92.758 48.624 2.395 0 4.79-.09 7.177-.27 2.441-.185 4.73-1.258 6.433-3.017l76.455-78.982c14.499-1.26 30.508-2.837 46.218-5.323v99.064c0 5.437 4.562 10 10 10h63.722c5.522 0 10-4.478 10-10s-4.478-10-10-10h-37.906l60.355-55.012 15.811 14.038c1.895 1.681 4.267 2.521 6.64 2.521 2.372 0 4.745-.841 6.639-2.521l15.827-14.048 60.371 55.022h-37.906c-5.522 0-10 4.478-10 10s4.478 10 10 10h63.722c3.219 0 6.303-1.608 8.161-4.233 1.183-1.671 1.839-3.717 1.839-5.767v-154.89c0-5.435-4.565-10-10-10zm-378.117-201.982c19.471 9.009 42.604 12.538 61.245 12.538 7.137 0 13.619-.517 18.977-1.437 5.443-.935 9.098-6.104 8.164-11.548-.935-5.443-6.1-9.105-11.548-8.163-11.819 2.029-32.65 1.649-52.548-3.771-15.145-4.128-34.584-12.546-41.648-29.23-5.128-15.709-9.365-32.816-12.755-51.48 42.077 43.032 75.97 50.958 106.403 58.074 24.618 5.755 46.093 10.78 69.121 35.166-7.079 12.808-12.075 27.194-14.698 42.748-32.914-11.853-62.009-7.109-92.608-2.102-2.912.476-5.857.957-8.834 1.43-11.205-12.384-20.932-26.375-29.271-42.225zm150.845 211.982v35.578c-17.394 2.908-35.603 4.598-51.651 5.965-2.406.205-4.656 1.273-6.336 3.009l-76.319 78.841c-28.412.742-57.734-14.418-79.132-41.108-2.448-3.054-4.73-6.182-6.849-9.363.862.016 1.727.027 2.598.027 22.302 0 47.488-5.153 70.018-14.699 5.085-2.155 7.461-8.024 5.306-13.109-2.154-5.086-8.024-7.459-13.109-5.307-24.803 10.51-53.97 15.128-76.011 12.254-7.191-17.264-9.643-34.996-6.718-50.767 58.022-.223 115.097-4.832 148.754-31.335 7.031.692 14.191 1.058 21.505 1.058 19.187 0 39.377-2.378 60.696-7.12 5.392-1.199 8.79-6.542 7.591-11.933-1.199-5.392-6.549-8.781-11.933-7.591-65.425 14.553-118.82 5.423-166.641-30.533 7.627.782 15.621 1.131 23.752 1.131 31.746 0 65.53-5.256 87.288-10.252 5.383-1.235 8.745-6.601 7.509-11.983-1.236-5.384-6.599-8.742-11.984-7.509-52.769 12.115-120.565 14.465-140.527-2.399-9.78-10.573-19.376-22.411-28.85-35.566 56.668 13.509 97.693 6.797 131.528 1.262 33.963-5.557 60.789-9.947 93.359 5.687 6.221 2.98 13.764-1.365 14.298-8.246 3.369-43.668 27.506-78.156 64.564-92.257 32.854-12.498 68.991-6.22 92.061 16.001l29.357 28.269c-16.898 4.833-31.904 17.065-44.795 36.573-13.362 20.218-21.108 46.106-24.376 81.467-2.92 31.389-11.019 55.643-24.72 73.956h-80.237c-5.431-.001-9.996 4.564-9.996 9.999zm20 132.245v-88.177c0-.015 0-.031 0-.046v-21.772l61.132 54.275zm98.623-49.18-15.814-14.04c-.045-.041-.09-.081-.136-.121l-66.347-58.905h164.614zm98.649 49.18-61.142-55.729 61.142-54.269z"/>
        </g>
    </g>
</svg>
